<svg xmlns="http://www.w3.org/2000/svg" width="70" height="70"><path fill="#00aa13" d="M68.06 34.892v23.442a9.765 9.765 0 01-9.727 9.727H11.667a9.762 9.762 0 01-9.724-9.727V34.016a.448.448 0 000-.063V11.667a9.765 9.765 0 019.724-9.727h46.666a9.762 9.762 0 019.724 9.727z"/><path fill="#fff" d="M0 54.073v4.26A11.7 11.7 0 0011.667 70h46.666A11.7 11.7 0 0070 58.333v-4.26"/><path fill="#a29061" d="M4.8 65.209a9.66 9.66 0 006.867 2.857h46.667a9.762 9.762 0 009.724-9.733v-4.254H1.94v4.254a9.657 9.657 0 002.857 6.87"/><path fill="#fff" d="M48.467 19.366c7.575 0 11.5 3.81 11.5 9.8a8.7 8.7 0 01-5.4 8.2c1.587 4.444 3.175 8.74 5.216 13.181H47.54l-5.419-17.67a7.47 7.47 0 001.5.187c2.149 0 5.137-.219 5.137-2.778 0-2.2-1.67-2.857-4.108-2.857h-2.7c-3.422 7.7-6.667 15.419-9.889 23.108H18.997c-3.739-9.911-4.635-12.781-9.076-23.159h11.641l4.159 13.388h.1l7.238-21.41z"/><path fill="#fff" d="M70 11.667A11.7 11.7 0 0058.333 0H11.667A11.7 11.7 0 000 11.667v46.666A11.7 11.7 0 0011.667 70h46.666A11.7 11.7 0 0070 58.333zm-1.94 46.666a9.765 9.765 0 01-9.727 9.727H11.667a9.762 9.762 0 01-9.724-9.727V34.016a.448.448 0 000-.063V11.667a9.765 9.765 0 019.724-9.727h46.666a9.762 9.762 0 019.724 9.727v23.225a.472.472 0 000 .067z"/><path fill="#fff" d="M12.302 56.491a2.756 2.756 0 011.81.578 1.8 1.8 0 01.7 1.444 1.654 1.654 0 01-.292.978 1.965 1.965 0 01-.844.67v.073a2.324 2.324 0 011.314.756 1.99 1.99 0 01.489 1.317 2.156 2.156 0 01-.343 1.2 2.121 2.121 0 01-.952.794 3.561 3.561 0 01-1.435.267H9.356v-8.077zm-.416 3.352a1.5 1.5 0 00.978-.3 1.006 1.006 0 00.359-.819.921.921 0 00-.317-.743 1.3 1.3 0 00-.867-.276h-1.124v2.133zm.365 3.492a2.022 2.022 0 001.2-.3 1.029 1.029 0 00.4-.876.952.952 0 00-.4-.813 1.775 1.775 0 00-1.076-.3h-1.46v2.286zm6.775-4.272a2.416 2.416 0 011.883.765 3.016 3.016 0 01.7 2.108v.2h-3.815a1.67 1.67 0 00.543 1.111 1.844 1.844 0 001.244.39 2.778 2.778 0 00.981-.175 4.334 4.334 0 00.946-.524v1.057a3.87 3.87 0 01-2.286.679 2.9 2.9 0 01-2.089-.768 2.683 2.683 0 01-.806-2.044 2.787 2.787 0 01.737-2.022 2.581 2.581 0 011.962-.777zm1.241 2.222a1.568 1.568 0 00-.359-.921 1.054 1.054 0 00-.825-.317 1.19 1.19 0 00-.863.317 1.568 1.568 0 00-.413.937zm5.577-2.219a1.771 1.771 0 011.384.571 2.133 2.133 0 01.517 1.5v3.435H26.33v-3.289a1.27 1.27 0 00-.251-.832.838.838 0 00-.686-.317 1.089 1.089 0 00-.619.194 2.971 2.971 0 00-.635.635v3.59h-1.422v-5.4h1.422v.765a2.558 2.558 0 01.806-.663 2.035 2.035 0 01.9-.19zm5.696-.004a2.422 2.422 0 011.883.765 3.016 3.016 0 01.7 2.108v.2h-3.81a1.667 1.667 0 00.54 1.111 1.854 1.854 0 001.248.39 2.775 2.775 0 00.978-.175 4.35 4.35 0 00.975-.537v1.057a3.879 3.879 0 01-2.3.67 2.9 2.9 0 01-2.086-.768 2.686 2.686 0 01-.81-2.044 2.79 2.79 0 01.749-2.013 2.581 2.581 0 011.933-.764zm1.241 2.222a1.568 1.568 0 00-.359-.921 1.054 1.054 0 00-.825-.317 1.191 1.191 0 00-.864.317 1.587 1.587 0 00-.416.937zm4.72-4.89a2.888 2.888 0 01.514.035 1.906 1.906 0 01.422.121v1.159a2.413 2.413 0 00-.635-.079 1 1 0 00-.765.267 1.27 1.27 0 00-.251.883v.387h.911v1.076h-.924v4.324h-1.422v-4.324h-.768v-1.076h.768v-.4a2.467 2.467 0 01.587-1.733 2 2 0 011.563-.64zm3.75.292l-1.67 1.73h-.768l.838-1.73zm-.948 2.49v5.4h-1.419v-5.4zm4.062-.11a3.946 3.946 0 011.7.365v1.21a2.857 2.857 0 00-1.435-.441 1.724 1.724 0 00-1.187 2.9 1.686 1.686 0 001.241.463 4.029 4.029 0 001.479-.381v1.149a4.531 4.531 0 01-1.73.34 3.025 3.025 0 01-2.13-.749 2.584 2.584 0 01-.816-1.994 2.778 2.778 0 01.8-2.076 2.835 2.835 0 012.078-.786zm3.632-2.39a.8.8 0 01.8.8.791.791 0 01-1.365.562.8.8 0 01.562-1.365zm.711 2.5v5.4h-1.425v-5.4zm4.141-.11a3.276 3.276 0 011.533.356 2.559 2.559 0 011.064.987 2.768 2.768 0 01.375 1.438 2.908 2.908 0 01-.346 1.47 2.54 2.54 0 01-1.064.994 3.492 3.492 0 01-3.089 0 2.574 2.574 0 01-1.054-.994 2.908 2.908 0 01-.362-1.47 2.752 2.752 0 01.381-1.448 2.6 2.6 0 011.064-.981 3.264 3.264 0 011.498-.352zm-1.467 2.781a1.975 1.975 0 00.4 1.292 1.292 1.292 0 001.06.483 1.371 1.371 0 001.092-.46 1.975 1.975 0 00.4-1.336 1.841 1.841 0 00-.4-1.27 1.39 1.39 0 00-1.089-.448 1.327 1.327 0 00-1.054.473 1.867 1.867 0 00-.407 1.266zm7.333-2.784a3.407 3.407 0 01.838.1 4.445 4.445 0 01.832.317v1.14a3.9 3.9 0 00-.867-.419 2.613 2.613 0 00-.829-.159.87.87 0 00-.479.114.378.378 0 00-.171.317.337.337 0 00.143.244 5.561 5.561 0 00.787.467 4.813 4.813 0 011.3.863 1.327 1.327 0 01.375.952 1.508 1.508 0 01-.543 1.229 2.251 2.251 0 01-1.47.448 4.31 4.31 0 01-1.076-.127 3.526 3.526 0 01-.832-.317v-1.184a3.832 3.832 0 001.752.578 1.2 1.2 0 00.59-.13.394.394 0 00.225-.343.362.362 0 00-.083-.232 1.034 1.034 0 00-.241-.216c-.108-.073-.444-.248-1.013-.524a2.93 2.93 0 01-.952-.679 1.311 1.311 0 01-.317-.87 1.371 1.371 0 01.559-1.146 2.372 2.372 0 011.472-.423z"/></svg>